<svg xmlns="http://www.w3.org/2000/svg" width="1123" height="794" viewBox="0 0 1123 794" fill="none">
  <rect width="1123" height="794" fill="#FFFDF8"/>
  <defs>
    <pattern id="diagonal-a" width="14" height="14" patternUnits="userSpaceOnUse" patternTransform="rotate(45)">
      <path d="M0 0H1V14H0Z" fill="#B4792F" opacity=".045"/>
    </pattern>
    <pattern id="diagonal-b" width="18" height="18" patternUnits="userSpaceOnUse" patternTransform="rotate(-45)">
      <path d="M0 0H1V18H0Z" fill="#B4792F" opacity=".024"/>
    </pattern>
    <radialGradient id="center-glow" cx="0" cy="0" r="1" gradientUnits="userSpaceOnUse" gradientTransform="translate(561.5 397) rotate(90) scale(260 445)">
      <stop stop-color="#FFFFFF" stop-opacity=".72"/>
      <stop offset=".72" stop-color="#FFFFFF" stop-opacity="0"/>
    </radialGradient>
  </defs>
  <rect width="1123" height="794" fill="url(#diagonal-a)"/>
  <rect width="1123" height="794" fill="url(#diagonal-b)"/>
  <rect x="48" y="48" width="1027" height="698" fill="url(#center-glow)"/>

  <rect x="22" y="22" width="1079" height="750" stroke="#AD702E" stroke-width="4"/>
  <rect x="32" y="32" width="1059" height="730" stroke="#AD702E" stroke-width="2"/>
  <rect x="49" y="49" width="1025" height="696" stroke="#D8A15F" stroke-width="1"/>
  <path d="M128 37H995M128 757H995" stroke="#D8A15F" stroke-width="2"/>
  <path d="M36 49V745M1087 49V745" stroke="#E0B97F" stroke-width="1"/>

  <g stroke="#AD702E" stroke-width="7" stroke-linecap="square">
    <path d="M67 120L85 59L145 77"/>
    <path d="M978 77L1038 59L1056 120"/>
    <path d="M67 674L85 735L145 717"/>
    <path d="M978 717L1038 735L1056 674"/>
  </g>
  <g stroke="#AD702E" stroke-width="4">
    <path d="M22 22H128M22 22V128"/>
    <path d="M1101 22H995M1101 22V128"/>
    <path d="M22 772H128M22 772V666"/>
    <path d="M1101 772H995M1101 772V666"/>
  </g>
</svg>
