<svg width="276" height="264" viewBox="0 0 276 264" fill="none" xmlns="http://www.w3.org/2000/svg">
<g filter="url(#filter0_f_5_990)">
<ellipse cx="132.38" cy="217.338" rx="110.607" ry="21.3375" fill="#1F88F8" fill-opacity="0.35"/>
</g>
<path d="M136.474 243.402C199.822 243.402 251.175 192.049 251.175 128.701C251.175 65.3534 199.822 14 136.474 14C73.1263 14 21.7729 65.3534 21.7729 128.701C21.7729 192.049 73.1263 243.402 136.474 243.402Z" fill="url(#paint0_linear_5_990)"/>
<path d="M225.205 60.3657H79.5156V132.262H225.205V60.3657Z" fill="url(#paint1_linear_5_990)"/>
<path d="M225.206 60.3657H239.829C249.362 60.3657 258.504 64.1527 265.245 70.8935C271.986 77.6343 275.773 86.7768 275.773 96.3098C275.773 105.843 271.986 114.985 265.245 121.726C258.504 128.467 249.362 132.254 239.829 132.254H225.206V60.3657Z" fill="url(#paint2_linear_5_990)"/>
<path d="M234.664 70.9417H243.029C249.463 70.9417 255.634 73.4975 260.183 78.047C264.733 82.5964 267.288 88.7668 267.288 95.2007V97.4276C267.288 103.862 264.733 110.032 260.183 114.581C255.634 119.131 249.463 121.687 243.029 121.687H234.664V70.9417Z" fill="url(#paint3_linear_5_990)"/>
<path d="M225.205 72.4319H91.751V132.262H225.205V72.4319Z" fill="url(#paint4_linear_5_990)"/>
<rect x="44.707" y="144.231" width="54.1073" height="69.2953" fill="url(#paint5_linear_5_990)"/>
<rect x="111.155" y="144.231" width="54.1073" height="69.2953" fill="url(#paint6_linear_5_990)"/>
<rect x="177.603" y="144.231" width="35.1223" height="69.2953" fill="url(#paint7_linear_5_990)"/>
<path d="M225.206 60.3657H212.767V132.262H225.206V60.3657Z" fill="url(#paint8_linear_5_990)"/>
<path d="M111.155 131.891L98.8145 131.891L98.8144 225.867L111.155 225.867L111.155 131.891Z" fill="url(#paint9_linear_5_990)"/>
<path fill-rule="evenodd" clip-rule="evenodd" d="M37.113 131.891L45.2359 131.891L45.2358 225.867H37.113C34.4917 225.867 32.3667 223.742 32.3667 221.121L32.3667 136.637C32.3667 134.016 34.4917 131.891 37.113 131.891ZM170.958 144.231V131.891H45.236V144.231H170.958ZM170.958 225.867V213.527H45.236V225.867H170.958Z" fill="url(#paint10_linear_5_990)"/>
<path fill-rule="evenodd" clip-rule="evenodd" d="M177.602 131.891H170.008C167.387 131.891 165.262 134.016 165.262 136.637L165.262 225.867H177.602V225.867H212.725L212.725 225.867H220.319C222.94 225.867 225.065 223.742 225.065 221.121L225.065 131.891L212.725 131.891H177.602ZM212.725 144.231H177.603L177.602 213.527H212.725V144.231Z" fill="url(#paint11_linear_5_990)"/>
<path d="M89.2788 132.415V132.55V136.826V167.978H123.274C123.799 167.978 124.224 167.553 124.224 167.029V136.826V133.364C124.224 132.84 123.799 132.415 123.274 132.415H89.2788Z" fill="url(#paint12_linear_5_990)"/>
<path d="M87.2222 132.415C86.6979 132.415 86.2729 132.84 86.2729 133.364V167.029C86.2729 167.553 86.6979 167.978 87.2222 167.978H121.218V132.415H87.2222Z" fill="url(#paint13_linear_5_990)"/>
<path d="M115.39 135.819H92.1085C91.0599 135.819 90.21 136.669 90.21 137.717V162.387C90.21 163.436 91.06 164.286 92.1085 164.286H115.39C116.439 164.286 117.289 163.436 117.289 162.387V137.717C117.289 136.669 116.439 135.819 115.39 135.819Z" fill="url(#paint14_linear_5_990)"/>
<g filter="url(#filter1_d_5_990)">
<path d="M24.7729 108.347L37.9143 140.667C38.0938 141.11 38.359 141.514 38.6947 141.854C39.0303 142.194 39.4299 142.465 39.8704 142.651C40.3109 142.836 40.7837 142.933 41.2617 142.936C41.7398 142.938 42.2136 142.847 42.6561 142.666L72.1056 130.701C73.0011 130.337 73.7154 129.632 74.0916 128.741C74.4679 127.851 74.4753 126.847 74.1124 125.951L58.9219 88.5929C58.5576 87.6996 57.8536 86.9874 56.9645 86.6127C56.0754 86.238 55.074 86.2315 54.1802 86.5946L29.7094 96.5438L24.7729 108.347Z" fill="url(#paint15_linear_5_990)"/>
</g>
<g filter="url(#filter2_d_5_990)">
<path d="M232.905 89.3622L219.763 121.682C219.584 122.125 219.319 122.529 218.983 122.869C218.647 123.209 218.248 123.48 217.807 123.666C217.367 123.851 216.894 123.948 216.416 123.951C215.938 123.953 215.464 123.861 215.022 123.681L185.572 111.716C184.677 111.352 183.962 110.647 183.586 109.756C183.21 108.866 183.202 107.862 183.565 106.966L198.756 69.6078C199.12 68.7145 199.824 68.0022 200.713 67.6276C201.602 67.2529 202.604 67.2464 203.498 67.6095L227.968 77.5587L232.905 89.3622Z" fill="url(#paint16_linear_5_990)"/>
</g>
<path d="M24.7729 108.347L33.1303 104.952L29.7179 96.5437L24.7729 108.347Z" fill="url(#paint17_linear_5_990)"/>
<path d="M232.905 89.3621L224.547 85.9667L227.96 77.5586L232.905 89.3621Z" fill="url(#paint18_linear_5_990)"/>
<path d="M107.314 151.246C108.392 150.489 109.2 149.407 109.621 148.16C110.043 146.912 110.056 145.562 109.659 144.306C109.262 143.05 108.475 141.954 107.412 141.175C106.349 140.397 105.067 139.978 103.749 139.978C102.432 139.978 101.149 140.397 100.087 141.175C99.0242 141.954 98.2372 143.05 97.8399 144.306C97.4427 145.562 97.4558 146.912 97.8774 148.16C98.299 149.407 99.1071 150.489 100.185 151.246L97.5259 160.399H109.964L107.314 151.246Z" fill="url(#paint19_linear_5_990)"/>
<path d="M183.927 55.1923C183.927 56.5242 183.727 57.8485 183.335 59.1211C182.698 61.1617 181.573 63.0161 180.058 64.5233C179.613 64.9737 179.134 65.3898 178.627 65.768C178.293 66.0282 177.942 66.2658 177.577 66.4793C177.213 66.7026 176.837 66.9061 176.451 67.089C175.875 67.3731 175.278 67.611 174.664 67.8002C173.391 68.193 172.067 68.3928 170.735 68.3929H168.28V132.025H99.6938V53.8121C99.705 50.6828 100.953 47.6848 103.166 45.4721C105.379 43.2593 108.377 42.0113 111.506 42.0001H170.701C172.35 41.9938 173.985 42.3012 175.519 42.9061C175.945 43.0711 176.36 43.2605 176.764 43.4734C176.967 43.575 177.162 43.6851 177.357 43.8036C177.517 43.8915 177.672 43.9876 177.822 44.0915C178.622 44.5975 179.364 45.1911 180.032 45.8612C180.93 46.7609 181.694 47.7845 182.302 48.901C182.712 49.6534 183.047 50.4448 183.301 51.2634L183.479 51.8985C183.588 52.3227 183.676 52.7523 183.741 53.1855C183.855 53.8486 183.917 54.5195 183.927 55.1923Z" fill="url(#paint20_linear_5_990)"/>
<path d="M183.928 55.1922C183.927 56.5241 183.728 57.8484 183.335 59.121C183.075 59.9376 182.741 60.7284 182.336 61.4834C181.722 62.5983 180.956 63.6216 180.058 64.5232C179.613 64.9736 179.135 65.3897 178.627 65.7679C178.288 66.022 177.941 66.2506 177.577 66.4792C177.213 66.7025 176.837 66.906 176.451 67.0889C175.874 67.3694 175.276 67.6072 174.664 67.8001C173.392 68.1929 172.067 68.3927 170.735 68.3928H168.28V53.812C168.285 51.4803 168.978 49.202 170.272 47.2621C171.566 45.3223 173.403 43.807 175.553 42.906C175.977 43.0754 176.4 43.2616 176.798 43.4733C177.001 43.5749 177.196 43.685 177.391 43.8035C177.551 43.8914 177.706 43.9875 177.856 44.0914C178.657 44.5974 179.398 45.191 180.066 45.8611C180.964 46.7608 181.728 47.7844 182.336 48.9009C182.743 49.655 183.077 50.446 183.335 51.2633L183.513 51.8984C183.623 52.3224 183.71 52.752 183.775 53.1854C183.878 53.8494 183.929 54.5203 183.928 55.1922Z" fill="url(#paint21_linear_5_990)"/>
<path d="M154.587 108.858H111.277C110.552 108.858 109.964 109.444 109.964 110.167C109.964 110.889 110.552 111.475 111.277 111.475H154.587C155.312 111.475 155.9 110.889 155.9 110.167C155.9 109.444 155.312 108.858 154.587 108.858Z" fill="#A5C4F1"/>
<path d="M154.587 95.4377H111.277C110.552 95.4377 109.964 96.0235 109.964 96.746C109.964 97.4685 110.552 98.0542 111.277 98.0542H154.587C155.312 98.0542 155.9 97.4685 155.9 96.746C155.9 96.0235 155.312 95.4377 154.587 95.4377Z" fill="#A5C4F1"/>
<path d="M154.587 82.0083H126.696C125.971 82.0083 125.383 82.594 125.383 83.3165C125.383 84.039 125.971 84.6247 126.696 84.6247H154.587C155.312 84.6247 155.9 84.039 155.9 83.3165C155.9 82.594 155.312 82.0083 154.587 82.0083Z" fill="#A5C4F1"/>
<path d="M136.289 68.5791H110.972C110.415 68.5791 109.964 69.0302 109.964 69.5867V70.1879C109.964 70.7444 110.415 71.1955 110.972 71.1955H136.289C136.846 71.1955 137.297 70.7444 137.297 70.1879V69.5867C137.297 69.0302 136.846 68.5791 136.289 68.5791Z" fill="#A5C4F1"/>
<path d="M120.591 82.0083H111.277C110.552 82.0083 109.964 82.594 109.964 83.3165C109.964 84.039 110.552 84.6247 111.277 84.6247H120.591C121.316 84.6247 121.903 84.039 121.903 83.3165C121.903 82.594 121.316 82.0083 120.591 82.0083Z" fill="#A5C4F1"/>
<path d="M45.1816 144.231H49.4533V213.527H45.1816V144.231Z" fill="url(#paint22_linear_5_990)"/>
<path d="M111.155 167.962H114.952V213.526H111.155V167.962Z" fill="url(#paint23_linear_5_990)"/>
<path d="M177.603 144.231H181.875V213.527H177.603V144.231Z" fill="url(#paint24_linear_5_990)"/>
<g filter="url(#filter3_f_5_990)">
<ellipse cx="61.3516" cy="85.7574" rx="36.5786" ry="11.7574" fill="#FF4C77" fill-opacity="0.3"/>
</g>
<path d="M27.0509 68.6242C27.7564 73.8909 29.7843 78.8932 32.9456 83.1643C36.1069 87.4354 40.2985 90.8362 45.1294 93.0495C49.9603 95.2628 55.2731 96.2164 60.5722 95.8214C65.8713 95.4264 70.984 93.6956 75.4333 90.7906L87.5557 94.9116C87.9214 95.0322 88.3139 95.0454 88.6869 94.9499C89.0599 94.8543 89.3977 94.654 89.6604 94.3725C89.9232 94.091 90.0998 93.7402 90.1694 93.3615C90.239 92.9828 90.1987 92.5921 90.0533 92.2356L85.1919 80.6395C87.7774 76.3322 89.2936 71.4682 89.6134 66.4547C89.9333 61.4411 89.0476 56.4239 87.0303 51.823C85.0131 47.222 81.9231 43.1712 78.019 40.0096C74.1149 36.848 69.5102 34.6676 64.5905 33.6509C59.6707 32.6341 54.5789 32.8107 49.7414 34.1658C44.9039 35.5208 40.4613 38.015 36.7856 41.4395C33.1098 44.8639 30.3079 49.119 28.6142 53.8487C26.9206 58.5783 26.3845 63.6449 27.0509 68.6242Z" fill="url(#paint25_linear_5_990)"/>
<path d="M57.4014 80.545C60.8168 80.545 63.2497 78.2057 63.2497 74.9307C63.2497 71.6557 60.8168 69.3164 57.4014 69.3164C54.0329 69.3164 51.5532 71.6557 51.5532 74.9307C51.5532 78.2057 54.0329 80.545 57.4014 80.545ZM62.08 68.3807C62.08 65.2929 63.8579 64.17 66.2907 63.0471C69.519 61.55 71.905 58.5089 71.905 54.7661C71.905 48.8711 66.1036 44.7539 58.2436 44.7539C49.8222 44.7539 43.8804 49.4793 43.3657 56.0761L54.1264 58.0411C54.4072 55.4678 55.7639 53.6432 57.6822 53.6432C59.1325 53.6432 60.2086 54.6257 60.2086 55.9825C60.2086 57.5732 58.6179 58.5557 57.3547 59.3043C53.9861 61.5032 52.7229 63.9361 52.7229 68.3807H62.08Z" fill="white"/>
<path d="M209.87 41.3066C212.515 41.3068 214.66 43.4513 214.66 46.0967C214.66 48.742 212.515 50.8866 209.87 50.8867C207.224 50.8867 205.08 48.742 205.08 46.0967C205.08 43.4512 207.224 41.3066 209.87 41.3066Z" stroke="url(#paint26_linear_5_990)" stroke-width="2.61276"/>
<circle cx="181.869" cy="237.096" r="4.79006" stroke="url(#paint27_linear_5_990)" stroke-width="2.61276"/>
<path d="M20.804 175.236C22.128 175.024 23.185 176.325 22.7067 177.577L19.4776 186.033C18.9992 187.285 17.3442 187.55 16.4986 186.51L10.7907 179.486C9.94504 178.445 10.543 176.879 11.867 176.667L20.804 175.236Z" fill="url(#paint28_linear_5_990)"/>
<path d="M241.751 168.006C241.42 166.707 242.619 165.536 243.91 165.899L252.623 168.348C253.914 168.71 254.328 170.335 253.369 171.271L246.892 177.593C245.932 178.529 244.318 178.076 243.987 176.777L241.751 168.006Z" fill="url(#paint29_linear_5_990)"/>
<path d="M125.643 8.41711C126.158 6.28414 129.192 6.28414 129.707 8.41711L131.44 15.5959C131.624 16.3582 132.219 16.9533 132.981 17.1373L140.16 18.8702C142.293 19.3851 142.293 22.419 140.16 22.9339L132.981 24.6668C132.219 24.8508 131.624 25.446 131.44 26.2082L129.707 33.387C129.192 35.52 126.158 35.52 125.643 33.387L123.91 26.2082C123.726 25.446 123.131 24.8508 122.369 24.6668L115.19 22.9339C113.057 22.419 113.057 19.3851 115.19 18.8702L122.369 17.1373C123.131 16.9533 123.726 16.3582 123.91 15.5959L125.643 8.41711Z" fill="url(#paint30_linear_5_990)"/>
<path d="M72.6432 230.417C73.1581 228.284 76.192 228.284 76.7069 230.417L78.4398 237.596C78.6238 238.358 79.2189 238.953 79.9812 239.137L87.16 240.87C89.293 241.385 89.293 244.419 87.16 244.934L79.9812 246.667C79.2189 246.851 78.6238 247.446 78.4398 248.208L76.7069 255.387C76.192 257.52 73.1581 257.52 72.6432 255.387L70.9102 248.208C70.7262 247.446 70.1311 246.851 69.3689 246.667L62.1901 244.934C60.0571 244.419 60.0571 241.385 62.1901 240.87L69.3689 239.137C70.1311 238.953 70.7262 238.358 70.9102 237.596L72.6432 230.417Z" fill="url(#paint31_linear_5_990)"/>
<defs>
<filter id="filter0_f_5_990" x="-4.57764e-05" y="174.227" width="264.76" height="86.221" filterUnits="userSpaceOnUse" color-interpolation-filters="sRGB">
<feFlood flood-opacity="0" result="BackgroundImageFix"/>
<feBlend mode="normal" in="SourceGraphic" in2="BackgroundImageFix" result="shape"/>
<feGaussianBlur stdDeviation="10.8865" result="effect1_foregroundBlur_5_990"/>
</filter>
<filter id="filter1_d_5_990" x="21.9252" y="86.3269" width="68.5913" height="76.5433" filterUnits="userSpaceOnUse" color-interpolation-filters="sRGB">
<feFlood flood-opacity="0" result="BackgroundImageFix"/>
<feColorMatrix in="SourceAlpha" type="matrix" values="0 0 0 0 0 0 0 0 0 0 0 0 0 0 0 0 0 0 127 0" result="hardAlpha"/>
<feOffset dx="6.64476" dy="10.4418"/>
<feGaussianBlur stdDeviation="4.74626"/>
<feComposite in2="hardAlpha" operator="out"/>
<feColorMatrix type="matrix" values="0 0 0 0 0.184314 0 0 0 0 0.254902 0 0 0 0 0.443137 0 0 0 0.15 0"/>
<feBlend mode="normal" in2="BackgroundImageFix" result="effect1_dropShadow_5_990"/>
<feBlend mode="normal" in="SourceGraphic" in2="effect1_dropShadow_5_990" result="shape"/>
</filter>
<filter id="filter2_d_5_990" x="180.451" y="67.3418" width="68.5913" height="76.5433" filterUnits="userSpaceOnUse" color-interpolation-filters="sRGB">
<feFlood flood-opacity="0" result="BackgroundImageFix"/>
<feColorMatrix in="SourceAlpha" type="matrix" values="0 0 0 0 0 0 0 0 0 0 0 0 0 0 0 0 0 0 127 0" result="hardAlpha"/>
<feOffset dx="6.64476" dy="10.4418"/>
<feGaussianBlur stdDeviation="4.74626"/>
<feComposite in2="hardAlpha" operator="out"/>
<feColorMatrix type="matrix" values="0 0 0 0 0.184314 0 0 0 0 0.254902 0 0 0 0 0.443137 0 0 0 0.15 0"/>
<feBlend mode="normal" in2="BackgroundImageFix" result="effect1_dropShadow_5_990"/>
<feBlend mode="normal" in="SourceGraphic" in2="effect1_dropShadow_5_990" result="shape"/>
</filter>
<filter id="filter3_f_5_990" x="2.99995" y="52.227" width="116.703" height="67.0608" filterUnits="userSpaceOnUse" color-interpolation-filters="sRGB">
<feFlood flood-opacity="0" result="BackgroundImageFix"/>
<feBlend mode="normal" in="SourceGraphic" in2="BackgroundImageFix" result="shape"/>
<feGaussianBlur stdDeviation="10.8865" result="effect1_foregroundBlur_5_990"/>
</filter>
<linearGradient id="paint0_linear_5_990" x1="135.59" y1="-23.3495" x2="137.939" y2="379.463" gradientUnits="userSpaceOnUse">
<stop stop-color="#CAE0FF" stop-opacity="0"/>
<stop offset="1" stop-color="#BCD8FF"/>
</linearGradient>
<linearGradient id="paint1_linear_5_990" x1="152.361" y1="60.3657" x2="152.361" y2="132.262" gradientUnits="userSpaceOnUse">
<stop stop-color="#ABCCFF"/>
<stop offset="1" stop-color="#70A8FF"/>
</linearGradient>
<linearGradient id="paint2_linear_5_990" x1="250.489" y1="60.3657" x2="250.489" y2="132.254" gradientUnits="userSpaceOnUse">
<stop stop-color="#70A8FF"/>
<stop offset="1" stop-color="#5597FD"/>
</linearGradient>
<linearGradient id="paint3_linear_5_990" x1="272.053" y1="123.348" x2="239.778" y2="80.6314" gradientUnits="userSpaceOnUse">
<stop stop-color="#EDF4FF"/>
<stop offset="1" stop-color="#ABCCFF"/>
</linearGradient>
<linearGradient id="paint4_linear_5_990" x1="158.478" y1="72.4319" x2="158.478" y2="132.262" gradientUnits="userSpaceOnUse">
<stop stop-color="#2A64BE"/>
<stop offset="1" stop-color="#6095E7"/>
</linearGradient>
<linearGradient id="paint5_linear_5_990" x1="113.528" y1="239.156" x2="47.0802" y2="176.506" gradientUnits="userSpaceOnUse">
<stop stop-color="#EDF4FF"/>
<stop offset="1" stop-color="#ABCCFF"/>
</linearGradient>
<linearGradient id="paint6_linear_5_990" x1="168.11" y1="219.697" x2="101.662" y2="192.168" gradientUnits="userSpaceOnUse">
<stop stop-color="#EDF4FF"/>
<stop offset="1" stop-color="#ABCCFF"/>
</linearGradient>
<linearGradient id="paint7_linear_5_990" x1="226.964" y1="221.121" x2="165.263" y2="162.742" gradientUnits="userSpaceOnUse">
<stop stop-color="#EDF4FF"/>
<stop offset="1" stop-color="#ABCCFF"/>
</linearGradient>
<linearGradient id="paint8_linear_5_990" x1="218.986" y1="60.3657" x2="218.986" y2="132.262" gradientUnits="userSpaceOnUse">
<stop stop-color="#ABCCFF"/>
<stop offset="1" stop-color="#70A8FF"/>
</linearGradient>
<linearGradient id="paint9_linear_5_990" x1="83.6264" y1="160.843" x2="75.0832" y2="243.903" gradientUnits="userSpaceOnUse">
<stop stop-color="#ABCCFF"/>
<stop offset="1" stop-color="#70A8FF"/>
</linearGradient>
<linearGradient id="paint10_linear_5_990" x1="29.9936" y1="148.503" x2="165.737" y2="211.154" gradientUnits="userSpaceOnUse">
<stop stop-color="#ABCCFF"/>
<stop offset="1" stop-color="#70A8FF"/>
</linearGradient>
<linearGradient id="paint11_linear_5_990" x1="272.053" y1="190.27" x2="187.095" y2="193.118" gradientUnits="userSpaceOnUse">
<stop stop-color="#70A8FF"/>
<stop offset="1" stop-color="#5597FD"/>
</linearGradient>
<linearGradient id="paint12_linear_5_990" x1="106.751" y1="132.415" x2="106.751" y2="167.978" gradientUnits="userSpaceOnUse">
<stop stop-color="#70A8FF"/>
<stop offset="1" stop-color="#5597FD"/>
</linearGradient>
<linearGradient id="paint13_linear_5_990" x1="103.745" y1="132.415" x2="103.745" y2="167.978" gradientUnits="userSpaceOnUse">
<stop stop-color="#ABCCFF"/>
<stop offset="1" stop-color="#70A8FF"/>
</linearGradient>
<linearGradient id="paint14_linear_5_990" x1="103.749" y1="135.819" x2="103.749" y2="164.286" gradientUnits="userSpaceOnUse">
<stop stop-color="#70A8FF"/>
<stop offset="1" stop-color="#5597FD"/>
</linearGradient>
<linearGradient id="paint15_linear_5_990" x1="68.9957" y1="111.521" x2="35.5956" y2="108.186" gradientUnits="userSpaceOnUse">
<stop stop-color="#C6DDFF"/>
<stop offset="1" stop-color="white"/>
</linearGradient>
<linearGradient id="paint16_linear_5_990" x1="188.682" y1="92.5354" x2="222.082" y2="89.2006" gradientUnits="userSpaceOnUse">
<stop stop-color="#C6DDFF"/>
<stop offset="1" stop-color="white"/>
</linearGradient>
<linearGradient id="paint17_linear_5_990" x1="28.9516" y1="96.5437" x2="28.9516" y2="108.347" gradientUnits="userSpaceOnUse">
<stop stop-color="#EDF4FF"/>
<stop offset="1" stop-color="#ABCCFF"/>
</linearGradient>
<linearGradient id="paint18_linear_5_990" x1="228.726" y1="77.5586" x2="228.726" y2="89.3621" gradientUnits="userSpaceOnUse">
<stop stop-color="#EDF4FF"/>
<stop offset="1" stop-color="#ABCCFF"/>
</linearGradient>
<linearGradient id="paint19_linear_5_990" x1="100.713" y1="154.673" x2="113.053" y2="155.147" gradientUnits="userSpaceOnUse">
<stop stop-color="#2A64BE"/>
<stop offset="1" stop-color="#4B80D1"/>
</linearGradient>
<linearGradient id="paint20_linear_5_990" x1="141.811" y1="42" x2="141.811" y2="132.025" gradientUnits="userSpaceOnUse">
<stop stop-color="#EDF4FF"/>
<stop offset="1" stop-color="#ABCCFF"/>
</linearGradient>
<linearGradient id="paint21_linear_5_990" x1="178.077" y1="64.9687" x2="159.567" y2="50.7299" gradientUnits="userSpaceOnUse">
<stop stop-color="#EDF4FF"/>
<stop offset="1" stop-color="#ABCCFF"/>
</linearGradient>
<linearGradient id="paint22_linear_5_990" x1="15.2802" y1="210.204" x2="105.135" y2="200.11" gradientUnits="userSpaceOnUse">
<stop offset="0.09375" stop-color="#2A64BE"/>
<stop offset="1" stop-color="#2A64BE" stop-opacity="0"/>
</linearGradient>
<linearGradient id="paint23_linear_5_990" x1="84.5758" y1="211.342" x2="163.632" y2="199.336" gradientUnits="userSpaceOnUse">
<stop offset="0.09375" stop-color="#2A64BE"/>
<stop offset="1" stop-color="#2A64BE" stop-opacity="0"/>
</linearGradient>
<linearGradient id="paint24_linear_5_990" x1="147.702" y1="210.204" x2="221.343" y2="216.666" gradientUnits="userSpaceOnUse">
<stop offset="0.09375" stop-color="#265FB8"/>
<stop offset="1" stop-color="#84B4FF"/>
</linearGradient>
<linearGradient id="paint25_linear_5_990" x1="27.0762" y1="37.2325" x2="89.7522" y2="96.6361" gradientUnits="userSpaceOnUse">
<stop stop-color="#FF698D"/>
<stop offset="1" stop-color="#FF3868"/>
</linearGradient>
<linearGradient id="paint26_linear_5_990" x1="202.376" y1="42.2862" x2="221.427" y2="58.7974" gradientUnits="userSpaceOnUse">
<stop stop-color="#94BFFF"/>
<stop offset="1" stop-color="#4C94FE"/>
</linearGradient>
<linearGradient id="paint27_linear_5_990" x1="174.376" y1="233.286" x2="193.427" y2="249.797" gradientUnits="userSpaceOnUse">
<stop stop-color="#94BFFF"/>
<stop offset="1" stop-color="#4C94FE"/>
</linearGradient>
<linearGradient id="paint28_linear_5_990" x1="23.783" y1="174.759" x2="10.2652" y2="185.744" gradientUnits="userSpaceOnUse">
<stop stop-color="#70A8FF"/>
<stop offset="1" stop-color="#5597FD"/>
</linearGradient>
<linearGradient id="paint29_linear_5_990" x1="241.006" y1="165.083" x2="253.172" y2="177.548" gradientUnits="userSpaceOnUse">
<stop stop-color="#70A8FF"/>
<stop offset="1" stop-color="#5597FD"/>
</linearGradient>
<linearGradient id="paint30_linear_5_990" x1="127.675" y1="0" x2="127.675" y2="41.8041" gradientUnits="userSpaceOnUse">
<stop stop-color="#70A8FF"/>
<stop offset="1" stop-color="#5597FD"/>
</linearGradient>
<linearGradient id="paint31_linear_5_990" x1="74.675" y1="222" x2="74.675" y2="263.804" gradientUnits="userSpaceOnUse">
<stop stop-color="#70A8FF"/>
<stop offset="1" stop-color="#5597FD"/>
</linearGradient>
</defs>
</svg>
