<svg width="36" height="36" viewBox="0 0 36 36" fill="none" xmlns="http://www.w3.org/2000/svg">
<g clip-path="url(#clip0_4018_49)">
<path d="M0 0H36V36H0V0Z" fill="#372F35"/>
<path d="M0 0H36V36H0V0Z" fill="url(#paint0_radial_4018_49)" style="mix-blend-mode:overlay"/>
<path fill-rule="evenodd" clip-rule="evenodd" d="M11.1071 26.7242V10.4375C11.1071 9.33293 12.0026 8.4375 13.1071 8.4375H23.8929C24.9974 8.4375 25.8929 9.33293 25.8929 10.4375V26.7242H26.2009C26.446 26.7242 26.681 26.821 26.8543 26.9934C27.0276 27.1658 27.125 27.3996 27.125 27.6433C27.125 27.8871 27.0276 28.1209 26.8543 28.2933C26.681 28.4657 26.446 28.5625 26.2009 28.5625H21.8884C21.6433 28.5625 21.4083 28.4657 21.235 28.2933C21.0616 28.1209 20.9643 27.8871 20.9643 27.6433V24.5794C20.9643 24.3356 20.8669 24.1019 20.6936 23.9295C20.5203 23.7571 20.2853 23.6603 20.0402 23.6603H16.9598C16.7147 23.6603 16.4797 23.7571 16.3064 23.9295C16.1331 24.1019 16.0357 24.3356 16.0357 24.5794V27.6433C16.0357 27.8871 15.9384 28.1209 15.765 28.2933C15.5917 28.4657 15.3567 28.5625 15.1116 28.5625H10.7991C10.554 28.5625 10.319 28.4657 10.1457 28.2933C9.97236 28.1209 9.875 27.8871 9.875 27.6433C9.875 27.3996 9.97236 27.1658 10.1457 26.9934C10.319 26.821 10.554 26.7242 10.7991 26.7242H11.1071ZM14.984 12.8097C14.8685 12.9246 14.8036 13.0805 14.8036 13.243V14.4685C14.8036 14.6311 14.8685 14.7869 14.984 14.9019C15.0996 15.0168 15.2563 15.0813 15.4196 15.0813H16.6518C16.8152 15.0813 16.9719 15.0168 17.0874 14.9019C17.203 14.7869 17.2679 14.6311 17.2679 14.4685V13.243C17.2679 13.0805 17.203 12.9246 17.0874 12.8097C16.9719 12.6948 16.8152 12.6302 16.6518 12.6302H15.4196C15.2563 12.6302 15.0996 12.6948 14.984 12.8097ZM14.984 17.7119C15.0996 17.597 15.2563 17.5325 15.4196 17.5325H16.6518C16.8152 17.5325 16.9719 17.597 17.0874 17.7119C17.203 17.8268 17.2679 17.9827 17.2679 18.1452V19.3708C17.2679 19.5333 17.203 19.6892 17.0874 19.8041C16.9719 19.919 16.8152 19.9836 16.6518 19.9836H15.4196C15.2563 19.9836 15.0996 19.919 14.984 19.8041C14.8685 19.6892 14.8036 19.5333 14.8036 19.3708V18.1452C14.8036 17.9827 14.8685 17.8268 14.984 17.7119ZM19.9126 12.8097C19.7971 12.9246 19.7321 13.0805 19.7321 13.243V14.4685C19.7321 14.6311 19.7971 14.7869 19.9126 14.9019C20.0281 15.0168 20.1848 15.0813 20.3482 15.0813H21.5804C21.7437 15.0813 21.9005 15.0168 22.016 14.9019C22.1315 14.7869 22.1964 14.6311 22.1964 14.4685V13.243C22.1964 13.0805 22.1315 12.9246 22.016 12.8097C21.9005 12.6948 21.7437 12.6302 21.5804 12.6302H20.3482C20.1848 12.6302 20.0281 12.6948 19.9126 12.8097ZM19.9126 17.7119C20.0281 17.597 20.1848 17.5325 20.3482 17.5325H21.5804C21.7437 17.5325 21.9005 17.597 22.016 17.7119C22.1315 17.8268 22.1964 17.9827 22.1964 18.1452V19.3708C22.1964 19.5333 22.1315 19.6892 22.016 19.8041C21.9005 19.919 21.7437 19.9836 21.5804 19.9836H20.3482C20.1848 19.9836 20.0281 19.919 19.9126 19.8041C19.7971 19.6892 19.7321 19.5333 19.7321 19.3708V18.1452C19.7321 17.9827 19.7971 17.8268 19.9126 17.7119Z" fill="white"/>
</g>
<defs>
<radialGradient id="paint0_radial_4018_49" cx="0" cy="0" r="1" gradientUnits="userSpaceOnUse" gradientTransform="translate(29.25 4.5) rotate(109.654) scale(33.4487 28.7522)">
<stop stop-color="white"/>
<stop offset="1" stop-color="#372F35"/>
</radialGradient>
<clipPath id="clip0_4018_49">
<path d="M0 6C0 2.68629 2.68629 0 6 0H30C33.3137 0 36 2.68629 36 6V30C36 33.3137 33.3137 36 30 36H6C2.68629 36 0 33.3137 0 30V6Z" fill="white"/>
</clipPath>
</defs>
</svg>
