<svg xmlns="http://www.w3.org/2000/svg" xml:space="preserve" width="311.173" height="339.963" style="shape-rendering:geometricPrecision;text-rendering:geometricPrecision;image-rendering:optimizeQuality;fill-rule:evenodd;clip-rule:evenodd" viewBox="0 0 8233 8995"><defs><style>.fil1{fill:#fff}</style></defs><g id="Layer_x0020_1"><g id="_2178598937152"><path d="M816 0h6602c448 0 815 396 815 880v6218c0 484-367 880-815 880H816c-449 0-816-396-816-880V880C0 396 367 0 816 0" style="fill:#e31e24"/><path d="M5406 4096h171l38-162c65-292 288-535 611-535h891c-43 276-195 388-375 380h-498c-115 0-202 113-220 214l-24 103h715c-43 234-181 393-392 394h-415l-157 672h-423l157-672h-171l-48 206c-57 281-222 466-665 466h-545c-323 0-439-243-368-535 86-389 391-542 677-531h618l24-103c29-101-5-214-120-214h-498c-183 8-284-104-197-380h891c323 0 432 243 361 535zm-509 394h-616c-180 0-249 291-68 292h444c123 2 189-84 202-132zm-3661 292c-115 0-157-87-130-193l23-99h415c212-1 349-160 393-394h-716l24-103c19-101 105-214 221-214h497c180 8 332-104 375-380h-891c-323 0-546 243-611 535l-159 682c-71 294 34 546 357 546h599c179 8 332-104 374-380zm2382-155c-65 292-295 535-618 535H1982c43-276 195-388 375-380h664c181-1 248-292 68-292h-542c-294 0-401-227-322-556 66-292 289-535 612-535h974c-43 276-195 388-375 380h-621c-199 0-250 317-74 317h448c290-11 524 142 429 531" class="fil1"/><path d="M6056 1224c1786 209 2365 1692 1295 3312-1071 1620-3388 2765-5174 2556C913 6944 254 6158 355 5137c-55 951 588 1676 1790 1815 1747 203 4014-909 5062-2483s480-3015-1267-3218c-544-63-1138 1-1729 167 630-187 1265-262 1845-194" class="fil1"/><path d="m6303 2695 38-171c77-363-277-374-332-374h-175c-339-5-464 199-501 375l-39 170c-22 98-113 156-233 151h-86c-178-8-353 104-452 380h585c287-13 526-188 613-531l33-149 170 1-34 148c-88 377 133 523 317 531h655c11-260-145-380-375-380h-43c-121 0-158-73-141-151" class="fil1"/><path d="M2127 8435c-53-49-130-75-198-75-112 0-233 56-233 189 0 109 77 149 154 173 79 26 125 40 125 86 0 49-39 66-83 66-48 0-101-27-130-64l-96 97c53 55 140 87 226 87 119 0 231-62 231-201 0-120-106-155-188-181-57-18-93-31-93-71 0-48 47-60 85-60 37 0 82 20 107 51zm238 544v-603h-146v603zm673 0v-603h-141l3 393h-2l-242-393h-166v603h141l-3-395h2l243 395zm655-84-101-95c-26 36-71 61-128 61-101 0-171-75-171-185 0-106 72-184 173-184 46 0 95 17 122 55l99-99c-50-58-141-88-226-88-184 0-327 123-327 316 0 189 139 319 325 319 101 0 181-38 234-100m483 84v-125h-280v-125h250v-116h-250v-114h264v-123h-405v603zm631 0v-603h-131l-199 145 74 102 113-87v443zm678-404c0-132-105-215-237-215-130 0-238 81-238 218 0 118 93 197 199 197 13 0 30-2 42-7l-1 3-150 208h172l146-217c40-60 67-115 67-187m-143-2c0 57-39 96-95 96s-94-40-94-95c0-57 39-97 96-97s93 44 93 96m693 2c0-132-105-215-237-215-130 0-238 81-238 218 0 118 93 197 199 197 13 0 30-2 42-7l-1 3-150 208h173l145-217c40-60 67-115 67-187m-143-2c0 57-39 96-95 96s-94-40-94-95c0-57 39-97 96-97s93 44 93 96m675 406v-125h-246l139-124c56-49 106-100 106-186 0-126-107-184-218-184-118 0-216 72-230 194l137 18c6-53 38-91 85-91 45 0 75 30 75 73 0 36-19 64-49 93l-235 212v120z" style="fill:#1f1b20;fill-rule:nonzero"/></g></g></svg>